<?xml version="1.0" standalone="no"?>
<!DOCTYPE svg PUBLIC "-//W3C//DTD SVG 20010904//EN"
 "http://www.w3.org/TR/2001/REC-SVG-20010904/DTD/svg10.dtd">
<svg version="1.0" xmlns="http://www.w3.org/2000/svg"
 width="25.000000pt" height="25.000000pt" viewBox="0 0 25.000000 25.000000"
 preserveAspectRatio="xMidYMid meet">
<defs>
    <linearGradient id="gradient">
      <stop offset="0%" stop-color="#FDEB01" />
      <stop offset="100%" stop-color="#01C32C" />
    </linearGradient>
  </defs>
<g transform="translate(0.000000,25.000000) scale(0.004883,-0.004883)"
fill="url(#gradient)" stroke="none">
<path d="M629 5097 c-19 -12 -44 -42 -56 -67 l-23 -44 0 -2426 0 -2426 23 -44
c12 -25 37 -55 56 -67 l34 -23 1897 0 1897 0 34 23 c19 12 44 42 57 67 l22 44
0 1663 0 1663 -779 0 -778 0 -33 23 c-18 12 -43 35 -54 50 -21 28 -21 35 -24
808 l-2 779 -1119 0 -1118 0 -34 -23z m852 -2462 c64 -42 87 -129 53 -201 -47
-98 -176 -120 -253 -43 -63 63 -65 152 -4 220 57 63 131 72 204 24z m2291 25
c46 -13 105 -77 114 -125 14 -78 -39 -164 -114 -185 -24 -6 -334 -10 -887 -10
-807 0 -852 1 -891 19 -135 61 -119 258 25 301 40 12 1709 12 1753 0z m-2312
-682 c57 -30 82 -65 88 -126 14 -146 -146 -229 -259 -135 -88 75 -73 205 30
260 55 29 85 29 141 1z m2341 -1 c134 -71 108 -257 -41 -297 -26 -7 -318 -10
-887 -8 -962 3 -899 -2 -950 85 -48 82 -16 185 71 224 39 18 84 19 902 19
l861 0 44 -23z m-2323 -674 c73 -54 94 -147 49 -214 -70 -104 -197 -106 -271
-6 -32 44 -29 132 6 179 15 19 42 42 60 52 42 21 120 16 156 -11z m2327 4 c56
-32 87 -89 82 -150 -5 -54 -27 -91 -77 -124 l-33 -23 -882 0 -882 0 -34 23
c-94 63 -107 180 -27 254 12 12 34 26 48 32 16 6 341 10 895 10 l870 1 40 -23z"/>
<path d="M3220 4405 l0 -625 627 0 628 0 -625 625 c-344 344 -626 625 -627
625 -2 0 -3 -281 -3 -625z"/>
</g>
</svg>
