<?xml version="1.0" standalone="no"?>
<!DOCTYPE svg PUBLIC "-//W3C//DTD SVG 20010904//EN"
 "http://www.w3.org/TR/2001/REC-SVG-20010904/DTD/svg10.dtd">
<svg version="1.0" xmlns="http://www.w3.org/2000/svg"
 width="1612.000000pt" height="330.000000pt" viewBox="0 0 1612.000000 428.000000"
 preserveAspectRatio="none">
<metadata>

</metadata>
<g transform="translate(0.000000,428.000000) scale(0.100000,-0.100000)"
fill="#ffffff" stroke="none">
<path d="M7757 3784 c-4 -274 -7 -580 -7 -681 l0 -183 -2839 0 -2839 0 2 -592
c5 -1133 9 -1407 17 -1318 4 47 7 489 8 983 l1 897 468 1 c257 1 676 2 932 3
l465 1 5 -967 c3 -531 8 -970 13 -974 4 -4 8 175 9 397 1 222 2 657 4 967 1
310 4 565 6 567 2 2 420 5 928 7 l925 3 5 -977 c3 -537 8 -979 11 -982 13 -13
19 372 19 1147 l0 807 478 1 c262 1 679 2 925 3 247 0 451 -3 454 -7 3 -5 6
-261 7 -570 5 -1112 8 -1392 16 -1367 4 14 8 456 9 983 l1 957 473 1 c259 1
680 3 935 3 l462 2 1 -960 c1 -529 5 -972 9 -986 8 -25 11 256 16 1368 1 310
4 565 6 567 2 2 420 5 928 7 l925 3 5 -977 c3 -537 8 -979 11 -982 13 -13 19
372 19 1147 l0 807 468 1 c257 1 670 3 917 4 248 1 456 -1 464 -5 11 -6 14
-107 15 -571 2 -310 3 -743 4 -962 1 -263 5 -396 12 -392 7 4 10 342 10 981
l0 974 -2840 0 -2840 0 0 668 c0 367 -4 673 -9 680 -4 7 -11 -211 -14 -484z"/>
</g>
</svg>
