<?xml version="1.0" standalone="no"?>
<!DOCTYPE svg PUBLIC "-//W3C//DTD SVG 20010904//EN"
 "http://www.w3.org/TR/2001/REC-SVG-20010904/DTD/svg10.dtd">
<svg version="1.0" xmlns="http://www.w3.org/2000/svg"
 width="20.000000pt" height="20.000000pt" viewBox="0 0 20.000000 20.000000"
 preserveAspectRatio="xMidYMid meet">

<g transform="translate(0.000000,20.000000) scale(0.003906,-0.003906)"
fill="#000000" stroke="none">
<path d="M758 5110 c-77 -23 -172 -116 -201 -196 -16 -46 -17 -181 -17 -2336
0 -2195 1 -2289 18 -2346 34 -106 109 -189 201 -220 25 -9 492 -12 1820 -12
l1786 0 50 24 c55 25 118 89 143 145 16 33 17 222 17 2391 0 2169 -1 2358 -17
2391 -25 56 -88 120 -143 145 l-50 24 -1790 -1 c-984 0 -1802 -4 -1817 -9z
m2627 -750 c80 -50 85 -150 10 -220 l-27 -25 -784 -3 c-867 -3 -824 -6 -864
61 -39 63 -19 150 43 187 31 19 56 20 811 20 763 0 779 0 811 -20z m-614
-1013 c79 -52 87 -141 19 -209 l-38 -38 -797 2 -797 3 -34 37 c-60 66 -46 163
31 209 29 18 68 19 806 19 l776 0 34 -23z m1218 5 c92 -49 92 -190 2 -237 -44
-22 -478 -22 -522 0 -65 34 -88 126 -49 190 37 60 59 65 310 65 199 0 229 -2
259 -18z m-1194 -764 c62 -67 52 -155 -24 -205 l-34 -23 -776 0 c-752 0 -777
1 -808 20 -45 27 -65 62 -65 115 0 53 20 88 65 116 31 19 53 19 820 17 l789
-3 33 -37z m1203 22 c84 -51 79 -185 -9 -232 -30 -16 -60 -18 -262 -18 -253 0
-271 4 -307 63 -39 63 -19 150 43 187 29 18 52 20 267 20 218 0 237 -2 268
-20z m-1227 -737 c40 -24 73 -94 65 -137 -8 -44 -41 -85 -82 -102 -49 -20
-1539 -21 -1587 -1 -39 17 -55 36 -72 83 -18 52 -4 102 39 142 l36 32 786 0
c727 0 788 -1 815 -17z m1220 2 c91 -47 91 -182 0 -233 -36 -21 -52 -22 -261
-22 -183 0 -228 3 -256 16 -92 44 -99 181 -11 234 29 18 52 20 265 20 191 0
238 -3 263 -15z m-53 -729 c37 -19 61 -47 72 -86 20 -69 12 -80 -249 -343
-135 -137 -258 -255 -273 -263 -33 -17 -82 -18 -111 -2 -12 6 -77 63 -144 127
-130 122 -150 154 -139 217 9 44 65 101 109 109 48 9 98 -15 168 -81 l60 -58
197 197 c195 194 199 197 241 197 23 0 54 -6 69 -14z"/>
</g>
</svg>
