<svg version="1.0" xmlns="http://www.w3.org/2000/svg"
 width="25.000000pt" height="25.000000pt" viewBox="0 0 25.000000 25.000000"
 preserveAspectRatio="xMidYMid meet">
<defs>
    <linearGradient id="gradient">
      <stop offset="0%" stop-color="#FDEB01" />
      <stop offset="100%" stop-color="#01C32C" />
    </linearGradient>
  </defs>
<g transform="translate(0.000000,25.000000) scale(0.007184,-0.007184)"
fill="url(#gradient)" stroke="none">
<path d="M1807 3244 c-2 -2 -126 -5 -278 -6 l-274 -3 -47 -30 c-26 -17 -52
-40 -59 -53 -7 -12 -28 -31 -47 -43 -43 -25 -32 -43 18 -29 19 6 46 10 60 10
21 0 17 -5 -28 -35 -85 -58 -59 -75 48 -30 115 48 174 24 114 -47 -16 -19 -24
-40 -22 -56 4 -37 24 -38 43 -2 9 17 32 38 51 48 26 12 42 30 60 69 22 46 30
53 62 59 20 4 102 0 182 -9 80 -9 189 -18 243 -21 122 -6 138 -15 160 -94 12
-44 25 -67 49 -87 34 -28 138 -145 138 -155 0 -3 -43 -43 -95 -88 -52 -46
-115 -113 -141 -150 -26 -37 -71 -99 -101 -139 -29 -40 -53 -76 -53 -81 0 -14
-64 -69 -105 -90 -22 -11 -55 -32 -74 -46 -19 -14 -42 -26 -51 -26 -9 0 -34
-18 -55 -40 -21 -22 -36 -40 -32 -40 5 0 -6 -20 -23 -45 -36 -53 -90 -163 -90
-186 0 -9 -45 -64 -101 -124 -93 -100 -106 -119 -169 -249 l-68 -141 -88 -55
c-172 -107 -232 -164 -249 -233 -7 -25 -257 -279 -305 -309 -22 -14 -32 -15
-90 -2 -62 13 -140 19 -140 10 0 -2 -7 -40 -15 -83 -8 -43 -15 -98 -15 -122 0
-24 -7 -71 -16 -104 -21 -83 -21 -204 0 -245 30 -58 76 -32 92 51 4 26 23 58
56 95 28 32 67 82 88 112 92 134 550 525 684 584 28 13 71 35 94 50 30 19 44
23 46 14 2 -7 14 -53 26 -102 39 -165 106 -276 164 -276 38 0 44 16 38 109 -3
60 -1 90 7 95 6 4 11 25 11 48 0 34 6 46 41 78 32 29 38 39 28 46 -8 5 142 12
366 15 387 7 466 13 521 42 51 27 67 53 72 113 4 47 0 64 -28 119 -44 86 -185
273 -276 365 -61 62 -74 81 -74 107 0 29 6 35 76 74 42 23 91 54 108 70 18 15
57 38 87 52 30 13 86 52 124 85 38 34 76 62 83 62 8 0 67 -54 131 -120 83 -86
129 -125 163 -139 26 -11 54 -31 62 -44 32 -48 127 -65 160 -28 32 35 70 205
96 424 6 55 18 118 27 140 18 52 19 287 1 299 -20 12 -28 -2 -29 -50 -1 -63
-17 -27 -18 40 -2 93 -30 60 -31 -37 -1 -42 -3 -46 -11 -26 -5 13 -9 48 -8 78
2 59 -2 69 -27 59 -14 -6 -16 -17 -11 -84 6 -76 2 -72 -21 20 -4 17 -13 33
-20 36 -16 5 -15 -54 2 -136 8 -34 10 -65 6 -67 -5 -3 -10 5 -12 17 -2 15 -11
24 -25 26 -19 3 -23 -1 -23 -23 0 -31 12 -55 57 -114 54 -71 48 -115 -42 -326
-14 -32 -19 -36 -26 -23 -5 9 -43 38 -84 64 -65 41 -76 52 -81 83 -11 61 -40
105 -108 165 -70 61 -79 76 -46 76 13 0 26 -12 37 -35 9 -19 21 -36 28 -38 6
-3 40 13 75 34 36 21 73 38 82 39 33 0 48 13 58 50 6 24 17 40 30 43 55 14 67
181 19 266 -39 69 -133 103 -224 80 -56 -14 -89 -52 -110 -123 -21 -71 -36
-90 -63 -82 -14 5 -25 21 -33 48 -8 31 -33 63 -105 136 -52 52 -94 98 -94 102
0 5 -30 31 -67 59 -38 27 -85 71 -106 96 -21 25 -51 52 -67 60 -17 9 -30 22
-30 30 0 13 -25 15 -147 16 -82 0 -158 2 -171 3 -12 2 -23 1 -25 0z m61 -1803
c59 -32 128 -67 154 -77 45 -18 62 -34 37 -34 -6 0 -60 -18 -118 -39 -104 -39
-112 -40 -279 -47 -106 -4 -172 -3 -172 2 0 6 21 26 48 46 26 20 85 75 132
122 46 47 86 86 88 86 2 0 52 -26 110 -59z"/>
</g>
</svg>
