<svg version="1.0" xmlns="http://www.w3.org/2000/svg"
 width="25.000000pt" height="25.000000pt" viewBox="0 0 25.000000 25.000000"
 preserveAspectRatio="xMidYMid meet">
<defs>
    <linearGradient id="gradient">
      <stop offset="0%" stop-color="#FDEB01" />
      <stop offset="100%" stop-color="#01C32C" />
    </linearGradient>
  </defs>
<g transform="translate(0.000000,25.000000) scale(0.002976,-0.002990)"
fill="url(#gradient)" stroke="none">
<path d="M3475 7886 c-125 -66 -1474 -789 -1938 -1038 -148 -80 -269 -149
-269 -154 -1 -14 -34 3 2092 -1134 74 -39 158 -85 187 -101 l52 -30 73 37 c40
20 138 71 218 114 80 43 327 176 550 295 223 119 488 262 590 317 102 55 345
186 540 290 195 104 361 195 368 202 17 16 31 8 -428 253 -1012 541 -1648 882
-1762 944 -70 38 -133 69 -140 69 -7 0 -67 -29 -133 -64z"/>
<path d="M4995 5918 c-58 -38 -185 -109 -555 -311 -96 -52 -247 -134 -335
-183 -88 -48 -235 -127 -327 -176 l-167 -89 -73 37 c-82 41 -556 296 -603 324
-16 10 -146 82 -288 159 -143 78 -301 168 -351 201 -51 33 -96 60 -101 60 -15
0 1 -549 20 -650 34 -187 117 -392 223 -547 64 -94 184 -225 268 -293 205
-164 384 -248 657 -307 106 -23 359 -23 499 1 472 78 893 420 1069 866 51 129
93 291 114 441 19 133 32 493 19 501 -5 3 -36 -12 -69 -34z"/>
<path d="M6205 3791 c-415 -74 -773 -276 -1028 -580 -183 -218 -290 -422 -356
-683 -48 -183 -54 -244 -48 -479 4 -183 8 -229 30 -319 52 -217 137 -416 253
-592 92 -139 320 -369 454 -457 193 -129 421 -224 650 -272 90 -19 136 -22
320 -22 194 0 227 2 341 26 607 128 1097 560 1289 1136 70 210 84 296 84 546
1 194 -2 233 -22 328 -52 241 -152 476 -279 657 -90 127 -312 348 -429 427
-221 150 -473 249 -732 288 -135 21 -399 18 -527 -4z m501 -416 c245 -43 487
-165 671 -339 178 -168 297 -371 369 -627 35 -124 45 -393 20 -534 -72 -419
-361 -794 -743 -966 -157 -71 -298 -102 -509 -115 -120 -7 -195 2 -354 42
-432 107 -775 429 -914 855 -49 152 -61 232 -60 414 1 180 14 255 70 418 65
187 160 338 310 489 181 183 433 316 690 362 108 19 339 20 450 1z"/>
<path d="M6650 2455 l-265 -265 -150 150 c-83 83 -155 150 -160 150 -13 0
-335 -322 -335 -335 0 -12 632 -645 644 -645 12 0 876 863 876 875 0 13 -322
335 -335 335 -6 0 -129 -119 -275 -265z"/>
<path d="M3254 3730 c-531 -47 -1082 -249 -1559 -571 -197 -133 -282 -205
-491 -414 -147 -147 -218 -227 -312 -353 -328 -441 -532 -905 -626 -1427 -28
-154 -56 -383 -56 -457 l0 -48 2460 0 c1353 0 2460 3 2460 8 0 4 -26 25 -57
47 -70 49 -237 215 -319 315 -121 149 -203 286 -279 465 -301 708 -175 1533
324 2115 44 52 78 97 73 101 -11 11 -297 105 -390 129 -115 29 -259 58 -377
76 -115 18 -700 28 -851 14z"/>
</g>
</svg>
